<svg viewBox="0 0 16 16" xmlns="http://www.w3.org/2000/svg" xmlns:xlink="http://www.w3.org/1999/xlink" width="16.000000" height="16.000000" fill="none">
	<rect id="star" width="16.000000" height="16.000000" x="0.000000" y="0.000000" fill="rgb(255,255,255)" fill-opacity="0" />
	<path id="Vector" d="M7.23922 2.34166C7.47922 1.60486 8.52162 1.60486 8.76082 2.34166L9.61682 4.97526C9.66911 5.13565 9.77078 5.27541 9.90727 5.37455C10.0438 5.47369 10.2081 5.52714 10.3768 5.52726L13.1464 5.52726C13.9216 5.52726 14.2432 6.51926 13.6168 6.97526L11.3768 8.60246C11.24 8.70169 11.1382 8.84167 11.0859 9.00234C11.0336 9.16302 11.0335 9.33613 11.0856 9.49686L11.9416 12.1305C12.1816 12.8673 11.3376 13.4809 10.7096 13.0249L8.46962 11.3977C8.33298 11.2985 8.16846 11.245 7.99962 11.245C7.83077 11.245 7.66625 11.2985 7.52962 11.3977L5.28962 13.0249C4.66242 13.4809 3.81922 12.8673 4.05842 12.1305L4.91442 9.49686C4.96656 9.33613 4.96646 9.16302 4.91415 9.00234C4.86184 8.84167 4.75999 8.70169 4.62322 8.60246L2.38402 6.97606C1.75762 6.52006 2.08002 5.52806 2.85442 5.52806L5.62322 5.52806C5.79205 5.52811 5.95658 5.47473 6.09324 5.37558C6.22989 5.27643 6.33168 5.13658 6.38402 4.97606L7.24002 2.34246L7.23922 2.34166Z" fill="rgb(47,48,44)" fill-rule="nonzero" />
</svg>
